#!OML:ASF E:/inclinewalkrobotboard/Project1/Captureday1/Session1/subject1.ASF
:FULLY-SPECIFIED
:DEGREES
13
root 0 0 0 -2.294579564748084 -0.2768627920624369 0.9460520889135293
lowerback 10.185837405630284 -0.8500832117065147 -3.061508429611971
upperback 0.33319897979956575 -1.4260969408734114 1.309031950540636
thorax -5.302444036163648 -0.6249074950470447 3.284913941279709
lowerneck -15.113662856776985 -2.538799150377705 -1.7298766713585783
upperneck 17.822027170175893 -3.1756301042876505 0.8649640672041434
head 8.205312181140663 -1.5643533358202666 0.21714516334632014
rclavicle -2.9273864673331077E-16 -1.5469561032227362E-16
rhumerus -21.35782734867675 -9.16426559065919 -69.23123900866219
rradius 54.87372794398888
rwrist -6.0367091721774715
rhand -14.112182437869176 -3.5834430944280413
rfingers 7.1250199999998935
rthumb 12.039674462311933 -32.925220970717156
lclavicle -7.106579598805078E-16 -3.6946213718473677E-16
lhumerus -38.24754897741938 0.15032125879168265 83.17429583076476
lradius 36.455144490968664
lwrist 3.282934660540777
lhand -20.82901615590228 5.111094073108822
lfingers 7.125019999999906
lthumb 5.4646244343172325 34.70888627497499
rfemur -11.487115351436142 2.0595080919469497 15.312224771853437
rtibia 31.676132708385524
rfoot -1.1069432167108717 -3.8866778549451375
rtoes 4.053076029119939
lfemur 0.455395030644123 -3.7753561341888973 -20.994216402263987
ltibia 21.415527659031508
lfoot -16.326476424087215 2.6988485696835376
ltoes -18.929345363066275
14
root 0 0 0 -2.3341635303701818 -0.28189896121637625 0.9709914034423766
lowerback 10.203979736310716 -0.8692337221948099 -3.05055532755513
upperback 0.3506205774685181 -1.4510329596219234 1.3328407950172545
thorax -5.290710740739262 -0.6352169064233729 3.3068608283121543
lowerneck -15.249504022086182 -2.5454365718459706 -1.7728246439496684
upperneck 17.983338770916276 -3.1713664247232245 0.8289736219497468
head 8.27050626628066 -1.5655917845754805 0.20848624915436884
rclavicle -2.7913419368263847E-16 -1.5023109875781828E-16
rhumerus -21.22608520118896 -9.01683917112279 -69.08170793308717
rradius 55.33285970813729
rwrist -6.200366185000588
rhand -14.049528500257836 -4.014594860565641
rfingers 7.125019999999892
rthumb 12.099961017020584 -33.34824370821593
lclavicle -7.019677559356659E-16 -3.66113128370175E-16
lhumerus -38.13773339690941 0.1419882351348006 83.16353209741638
lradius 36.31286476141389
lwrist 3.331371636822105
lhand -20.94275713789373 5.4566896377483065
lfingers 7.125019999999909
lthumb 5.357472013065111 35.05937513327457
rfemur -11.771527207483548 2.181324678323094 15.909017297974524
rtibia 32.471319480259105
rfoot -1.3207174025353599 -4.0366927807489
rtoes 4.196620551765099
lfemur -0.6121131815102974 -3.5036046183440086 -20.705627287709163
ltibia 23.214739191999804
lfoot -15.236554079977598 2.0123991592430377
ltoes -17.791086781165916
15
root 0 0 0 -2.3638085683727494 -0.3122432485817894 0.946654956990121
lowerback 10.216495549530034 -0.8683883969226653 -2.9961051460856845
upperback 0.3636400272934241 -1.443722160572308 1.3531816083329176
thorax -5.2815034568640815 -0.6311824672987377 3.296743679349989
lowerneck -15.357023736166767 -2.5537648477006374 -1.8026808331194766
upperneck 18.11764737265009 -3.1731721423068358 0.8003732543088375
head 8.321234308111839 -1.569036537074718 0.2002295680334198
rclavicle -2.7216334767450496E-16 -1.4563972878940677E-16
rhumerus -21.134552229871176 -8.92007602196539 -68.98161751736939
rradius 55.633354531595685
rwrist -6.311467277625301
rhand -14.009293561372674 -4.292920372611572
rfingers 7.12501999999989
rthumb 12.138660964902984 -33.62016728111897
lclavicle -6.9488034793022965E-16 -3.58977149362866E-16
lhumerus -37.9488236824397 0.13135297043227037 83.14591713748612
lradius 36.056238886037846
lwrist 3.4135239099729198
lhand -21.140352326412096 6.059420255005412
lfingers 7.125019999999912
lthumb 5.17039853709125 35.671403120336265
rfemur -12.011397770545301 2.3841966429155637 16.71378778851043
rtibia 33.13999798579789
rfoot -1.7834986415062426 -4.245387525058215
rtoes 4.249985272134872
lfemur -2.0697166862536847 -3.1953067199262906 -20.211656391091143
ltibia 25.319991638978497
lfoot -14.010592150623015 1.3270173747824332
ltoes -16.74073262553366
16
root 0 0 0 -2.3878849970273226 -0.37094191078932615 0.8722274231036731
lowerback 10.22641093527223 -0.8478616499918095 -2.8931131377817056
upperback 0.3745012419837475 -1.4040189331526522 1.3725481922522271
thorax -5.273291851057928 -0.6126256703068026 3.2543477013786424
lowerneck -15.450433568820387 -2.5651378841439656 -1.824079682279298
upperneck 18.24004101030063 -3.1817681274928495 0.7759116374377522
head 8.364940653111201 -1.5751374564358718 0.19154354812167282
rclavicle -2.707655290298871E-16 -1.4174300557964579E-16
rhumerus -21.102225448470925 -8.890133983685043 -68.94981994758558
rradius 55.724731813348754
rwrist -6.3490886066249095
rhand -13.997645922040327 -4.374156556913295
rfingers 7.125019999999889
rthumb 12.149743927712374 -33.69902104948852
lclavicle -6.849766014468028E-16 -3.5133148565953136E-16
lhumerus -37.69211583223481 0.11744945042680055 83.1233582323577
lradius 35.705537778283684
lwrist 3.524437382655961
lhand -21.40840518006119 6.876359020622283
lfingers 7.125019999999918
lthumb 4.916773662177 36.50217032802752
rfemur -12.09458154912533 2.705772720458719 17.736243690061727
rtibia 33.33221113516339
rfoot -2.652876992181351 -4.522846740246761
rtoes 4.098195359736727
lfemur -4.097390819814685 -2.816630846081324 -19.447532419811097
ltibia 27.960360594073475
lfoot -12.51312045217832 0.5759727119889035
ltoes -15.669115295296923
17
root 0 0 0 -2.408013133479793 -0.4789206874322587 0.715852323906057
lowerback 10.235738732141963 -0.796160061446199 -2.7052048007941876
upperback 0.38420669604716434 -1.312252898096864 1.393848842941445
thorax -5.265594579414092 -0.5705873406593004 3.1595736704804818
lowerneck -15.539861560178771 -2.583187203062752 -1.8375565704882564
upperneck 18.362641291800728 -3.202118770380733 0.7539129092824426
head 8.406916786097582 -1.5861163467478354 0.18106744509295367
rclavicle -2.7280704924623574E-16 -1.393338710984383E-16
rhumerus -21.115015892461997 -8.910310086644383 -68.97037212193061
rradius 55.65724155262132
rwrist -6.330907962438714
rhand -14.007687259704106 -4.30594362530692
rfingers 7.12501999999989
rthumb 12.139885114565237 -33.63144500917225
lclavicle -6.717433839994289E-16 -3.4472207640950603E-16
lhumerus -37.40229297817036 0.10037103402981859 83.09926943097463
lradius 35.31195038314715
lwrist 3.649668870986087
lhand -21.70977172802393 7.793743904657122
lfingers 7.125019999999924
lthumb 4.632017603706004 37.4360677321307
rfemur -11.808796839899784 3.171877766250539 18.96524343989264
rtibia 32.72935959953177
rfoot -4.019950438075596 -4.8326558588277715
rtoes 3.6795347034096864
lfemur -7.1830906083270545 -2.2817731208155605 -18.231003628467732
ltibia 31.72976168752349
lfoot -10.397448757492294 -0.4051765798991127
ltoes -14.323217521373227
18
root 0 0 0 -2.4201149226443928 -0.9178849396192601 0.029332877509538502
lowerback 10.253079715775586 -0.5464505688417249 -1.9443448921968183
upperback 0.39242892917775024 -0.8874730733608667 1.4424838365058785
thorax -5.260052653565935 -0.37775034015665343 2.726372051186422
lowerneck -15.682263337754012 -2.6513730433098646 -1.8222962915844905
upperneck 18.570573393321688 -3.3013194949882507 0.7306930574828447
head 8.476450210596985 -1.6312846042444962 0.15463065109040067
rclavicle -2.750087762065084E-16 -1.3621513014050634E-16
rhumerus -21.095916058916615 -8.899987968485128 -68.96314177109275
rradius 55.67186175786321
rwrist -6.3489217479361315
rhand -14.00884592146996 -4.308229850775749
rfingers 7.12501999999989
rthumb 12.13932889113354 -33.63120388373483
lclavicle -6.518186054962604E-16 -3.360812139954757E-16
lhumerus -37.08186551204426 0.07291813505421148 83.07565887470234
lradius 34.89271411627645
lwrist 3.791185469573702
lhand -22.03838654917158 8.790863136684385
lfingers 7.125019999999931
lthumb 4.3222620091245325 38.450410157321684
rfemur -10.180521613098929 4.060741874215507 20.878675620072013
rtibia 30.03811177746784
rfoot -6.714732481853582 -5.1332697842492685
rtoes 2.6538571030323475
lfemur -13.935267245456938 -1.185101840289326 -15.577489340409363
ltibia 39.45124349245168
lfoot -6.005353220741464 -2.3359592043971373
ltoes -11.490380053508819
